<?xml version="1.0" standalone="no"?>
<!DOCTYPE svg PUBLIC "-//W3C//DTD SVG 20010904//EN"
 "http://www.w3.org/TR/2001/REC-SVG-20010904/DTD/svg10.dtd">
<svg version="1.0" xmlns="http://www.w3.org/2000/svg"
 width="700.000000pt" height="700.000000pt" viewBox="0 0 700.000000 700.000000"
 preserveAspectRatio="xMidYMid meet">
<metadata>
Created by potrace 1.14, written by Peter Selinger 2001-2017
</metadata>
<g transform="translate(0.000000,700.000000) scale(0.100000,-0.100000)"
fill="#000000" stroke="none">
<path d="M3278 6995 c-1 -1 -42 -5 -89 -9 -47 -4 -95 -8 -105 -10 -10 -2 -41
-7 -69 -10 -428 -56 -875 -210 -1270 -439 -103 -60 -265 -165 -315 -204 -8 -6
-51 -40 -95 -74 -353 -275 -673 -651 -897 -1054 -48 -86 -148 -289 -148 -301
0 -2 -11 -27 -24 -56 -60 -133 -155 -432 -181 -569 -3 -13 -11 -58 -20 -99
-22 -115 -30 -160 -41 -255 -26 -230 -26 -667 1 -826 2 -13 6 -46 9 -74 9 -78
22 -152 51 -285 21 -96 91 -339 114 -395 5 -11 25 -65 46 -120 63 -166 249
-531 312 -610 4 -6 34 -49 65 -95 171 -256 431 -533 712 -758 89 -72 367 -262
382 -262 4 0 15 -6 23 -14 26 -22 298 -158 411 -205 267 -111 589 -200 859
-237 25 -3 57 -8 71 -10 163 -25 682 -25 842 1 13 2 46 7 73 10 71 10 87 13
115 18 14 3 43 8 65 12 22 4 76 16 120 27 44 10 87 21 96 23 25 5 157 45 219
65 178 57 568 235 660 300 15 11 33 20 39 20 6 0 11 5 11 10 0 6 5 10 10 10
15 0 220 141 330 227 152 118 324 280 450 422 36 41 70 79 76 85 6 6 48 61 94
121 150 197 277 405 383 628 26 53 47 99 47 102 0 2 11 28 24 57 57 127 151
421 182 573 17 81 54 301 59 350 4 33 9 71 11 85 9 47 11 525 3 605 -15 165
-21 220 -24 225 -2 3 -6 30 -10 60 -9 75 -69 337 -99 435 -135 446 -345 845
-627 1195 -425 527 -979 914 -1614 1128 -168 57 -420 119 -555 137 -19 3 -46
7 -60 10 -13 2 -52 7 -86 11 -33 3 -74 8 -90 10 -32 5 -540 14 -546 9z m1674
-1055 c208 -124 367 -249 548 -430 151 -151 215 -226 342 -405 98 -138 229
-379 213 -394 -6 -5 -120 -53 -255 -106 -135 -53 -256 -102 -270 -107 -14 -6
-29 -12 -35 -14 -5 -2 -61 -24 -124 -49 -107 -43 -114 -45 -127 -28 -7 10 -14
21 -14 25 0 11 -100 170 -143 228 -109 148 -253 294 -392 400 -87 66 -247 170
-262 170 -5 0 -16 7 -26 14 -17 13 -8 38 144 419 l162 406 69 -35 c38 -19 114
-62 170 -94z m-1323 -1355 c34 -4 62 -6 63 -6 2 1 41 -10 88 -23 327 -92 575
-302 715 -604 32 -69 72 -196 80 -253 3 -24 8 -57 12 -74 21 -106 -4 -337 -54
-490 -93 -290 -261 -489 -513 -607 -260 -122 -534 -152 -787 -88 -86 22 -207
70 -260 102 -21 13 -50 30 -65 37 -16 8 -28 18 -28 23 0 4 -7 8 -14 8 -23 0
-218 197 -264 266 -206 308 -250 654 -129 1009 56 164 123 278 226 388 164
174 469 307 726 316 39 1 71 3 72 4 3 4 68 0 132 -8z m-1837 -2058 c165 -296
433 -563 741 -737 56 -32 76 -49 72 -60 -3 -8 -76 -191 -162 -407 l-156 -392
-81 41 c-158 82 -291 168 -446 287 -116 90 -147 117 -280 251 -215 217 -384
452 -520 720 l-29 57 142 57 c78 30 259 103 402 160 143 58 263 105 266 105 3
1 26 -36 51 -82z"/>
<path d="M3396 3924 c-110 -26 -220 -110 -279 -214 -75 -130 -67 -330 18 -449
40 -56 47 -64 95 -102 73 -58 153 -89 244 -94 405 -20 617 467 327 751 -42 41
-129 93 -168 100 -14 3 -30 7 -35 10 -20 12 -147 11 -202 -2z"/>
</g>
</svg>
